<svg xmlns="http://www.w3.org/2000/svg" viewBox="0 0 777.31 406.04"><defs><style>.cls-1,.cls-2,.cls-4{fill:#4da055;}.cls-1,.cls-2,.cls-3,.cls-6,.cls-7{stroke:#549359;stroke-width:0.87px;}.cls-1{stroke-miterlimit:10;}.cls-2,.cls-3,.cls-7{stroke-linecap:round;}.cls-2,.cls-3,.cls-6,.cls-7{stroke-linejoin:round;}.cls-3,.cls-5{fill:#6ac676;}.cls-6,.cls-7{fill:none;}</style></defs><g id="Слой_2" data-name="Слой 2"><g id="Слой_1-2" data-name="Слой 1"><path class="cls-1" d="M212.84,405.6a191.21,191.21,0,0,1-39.09-4,263.57,263.57,0,0,1-36.44-10.3,193.52,193.52,0,0,1-33.8-17.95,238.51,238.51,0,0,1-29.57-23.24,211.25,211.25,0,0,1-42.78-61.79,208.08,208.08,0,0,1-11.62-36.44,179.45,179.45,0,0,1-4.23-39.09A208.07,208.07,0,0,1,19,173.49a204.2,204.2,0,0,1,10.57-36.71A179.21,179.21,0,0,1,46.74,103a195.81,195.81,0,0,1,23-29,167.68,167.68,0,0,1,28-24.3,224.27,224.27,0,0,1,32.22-18.48,207.73,207.73,0,0,1,36.7-11.62,186.21,186.21,0,0,1,39.88-4.23,200.91,200.91,0,0,1,40.14,4,191.88,191.88,0,0,1,37,11.35,176.94,176.94,0,0,1,33.28,17.43A187,187,0,0,1,345.4,71.3a191.84,191.84,0,0,1,23.5,28.52,196.08,196.08,0,0,1,17.69,32.74,170.87,170.87,0,0,1,11.09,35.91,210,210,0,0,1-10.56,115.66,219.79,219.79,0,0,1-17.43,33.8A206,206,0,0,1,347,347.51a183,183,0,0,1-27.73,24.56,173.68,173.68,0,0,1-31.95,18.22,183.74,183.74,0,0,1-35.65,11.35A187.36,187.36,0,0,1,212.84,405.6Zm-6.34-26.93a130,130,0,0,0,30.63-3.44,101.48,101.48,0,0,0,26.41-10.29,128.75,128.75,0,0,0,22.71-16.38,109.36,109.36,0,0,0,18.48-21.65,145.56,145.56,0,0,0,14.79-25.61,205.1,205.1,0,0,0,10.56-29.05,222,222,0,0,0,6.34-31.42,261.18,261.18,0,0,0,2.11-33.28,251.17,251.17,0,0,0-2.11-32.48,238.81,238.81,0,0,0-6.08-30.89,169.49,169.49,0,0,0-10.29-28.26,157.68,157.68,0,0,0-14.26-24.55,132.58,132.58,0,0,0-18-20.34,109.6,109.6,0,0,0-21.65-15.58A100,100,0,0,0,241.09,46a125,125,0,0,0-28.78-3.17q-29.59.53-53.87,12.41a119.23,119.23,0,0,0-41.2,33q-17.42,20.6-26.67,49.38t-9.24,63.11a308.72,308.72,0,0,0,1.85,33.8A235.18,235.18,0,0,0,89,267a256.2,256.2,0,0,0,9.51,29.84A142.66,142.66,0,0,0,112,323.21a116.09,116.09,0,0,0,17.17,22.71,105.31,105.31,0,0,0,47.53,28.26A124.34,124.34,0,0,0,206.5,378.67Z"/><path class="cls-2" d="M774.24,24.82,504.89,364.41q10.56,1.57,20.6,2.64l20.07,2.11q10,1.06,19.54,1.59t19,.52q9,0,18.22-.26T620,369.69a198.93,198.93,0,0,0,33.8-5.81,129.23,129.23,0,0,0,18.49-5.55q9-3.42,17.43-7.65,8.43-4.76,16.37-10a95.73,95.73,0,0,0,14.79-12.15A125.49,125.49,0,0,0,742,304.73q4.22-6.35,8.71-14a154.66,154.66,0,0,0,8.19-16.1l3.08-8.55L776.88,281,736.21,394H415.64L400.76,379.1,683.93,53.34q-8.46-1.59-16.38-2.64t-15.31-1.58c-4.94-.71-9.86-1.23-14.79-1.59S627.76,47,623.19,47q-8.45,0-16.63.27c-5.47.18-10.83.44-16.11.79-4.94.71-9.77,1.5-14.53,2.38s-9.42,1.84-14,2.9A153.13,153.13,0,0,0,529.71,66a112.94,112.94,0,0,0-14.52,8.71q-7.13,5-14,10.3-10,9-20.07,19.54-10,11.09-20.06,23.76l-18-7.39-14.88-14.88,55.54-81.24L759.36,9.94Z"/><path class="cls-3" d="M198,390.72a191.18,191.18,0,0,1-39.08-4,263.57,263.57,0,0,1-36.44-10.3,193.52,193.52,0,0,1-33.8-17.95,238.51,238.51,0,0,1-29.57-23.24,211.25,211.25,0,0,1-42.78-61.79A208.08,208.08,0,0,1,4.66,237,179.45,179.45,0,0,1,.43,198a208.07,208.07,0,0,1,3.7-39.34A205,205,0,0,1,14.69,121.9,179.85,179.85,0,0,1,31.86,88.1a195.81,195.81,0,0,1,23-29,167.23,167.23,0,0,1,28-24.3A224.27,224.27,0,0,1,115,16.28a207.73,207.73,0,0,1,36.7-11.62A186.21,186.21,0,0,1,191.62.43a200.74,200.74,0,0,1,40.13,4,191.76,191.76,0,0,1,37,11.35A176.94,176.94,0,0,1,302,33.18a187,187,0,0,1,28.52,23.24A192.27,192.27,0,0,1,354,84.93a196.57,196.57,0,0,1,17.69,32.75,170.87,170.87,0,0,1,11.09,35.91,210,210,0,0,1-10.56,115.66,219.79,219.79,0,0,1-17.43,33.8,206,206,0,0,1-22.71,29.58,183,183,0,0,1-27.73,24.56,173.68,173.68,0,0,1-31.95,18.22,183.74,183.74,0,0,1-35.65,11.35A187.38,187.38,0,0,1,198,390.72Zm-6.33-26.93a130,130,0,0,0,30.63-3.44,101.62,101.62,0,0,0,26.41-10.29,128.75,128.75,0,0,0,22.71-16.38A109.36,109.36,0,0,0,289.85,312a145.56,145.56,0,0,0,14.79-25.61,205.1,205.1,0,0,0,10.56-29.05A222,222,0,0,0,321.54,226a261.3,261.3,0,0,0,2.11-33.28,251.17,251.17,0,0,0-2.11-32.48,240.51,240.51,0,0,0-6.08-30.89A169.17,169.17,0,0,0,305.17,101a158.26,158.26,0,0,0-14.26-24.56,133,133,0,0,0-18-20.33A109.6,109.6,0,0,0,251.3,40.57a100,100,0,0,0-25.09-9.5,125,125,0,0,0-28.78-3.17q-29.6.53-53.87,12.41a119.23,119.23,0,0,0-41.2,33Q84.95,93.92,75.69,122.7t-9.24,63.11a308.72,308.72,0,0,0,1.85,33.8,235.18,235.18,0,0,0,5.81,32.48,258.11,258.11,0,0,0,9.5,29.84,143.31,143.31,0,0,0,13.47,26.4A116.09,116.09,0,0,0,114.25,331a105.31,105.31,0,0,0,47.53,28.26A124.26,124.26,0,0,0,191.62,363.79Z"/><path class="cls-3" d="M759.36,9.94,490,349.53q10.56,1.58,20.6,2.64l20.07,2.11q10,1.07,19.54,1.58t19,.53q9,0,18.22-.26t17.69-1.32a198.93,198.93,0,0,0,33.8-5.81,129.23,129.23,0,0,0,18.49-5.55,190.08,190.08,0,0,0,17.42-7.65q8.45-4.76,16.38-10A96.79,96.79,0,0,0,706,313.61a125.49,125.49,0,0,0,21.12-23.76q4.22-6.35,8.71-14a154.66,154.66,0,0,0,8.19-16.1l18,6.33-40.67,113H400.76L669.05,38.46q-8.46-1.59-16.38-2.64t-15.31-1.59c-4.94-.7-9.86-1.23-14.79-1.58s-9.69-.53-14.26-.53q-8.44,0-16.63.27c-5.47.18-10.83.44-16.11.79-4.94.71-9.77,1.5-14.53,2.37s-9.42,1.85-14,2.91a153.65,153.65,0,0,0-32.22,12.67,114.18,114.18,0,0,0-14.52,8.72q-7.12,5-14,10.3-10,9-20.07,19.54-10,11.09-20.06,23.76l-18-7.39L468.88,9.94Z"/><polygon class="cls-4" points="186 196.18 194.82 118.51 233.76 203.96 186 196.18"/><polygon class="cls-4" points="186 196.18 193.47 272.64 233.76 203.96 186 196.18"/><polygon class="cls-5" points="186 196.18 194.82 118.51 153.18 203.96 186 196.18"/><polygon class="cls-5" points="186 196.18 193.47 272.64 153.18 203.96 186 196.18"/><polygon class="cls-6" points="186 196.18 194.82 118.51 233.76 203.96 186 196.18"/><polygon class="cls-7" points="233.76 203.96 186 196.18 153.18 203.96 193.47 272.64 233.76 203.96"/><line class="cls-7" x1="186" y1="196.18" x2="193.47" y2="272.64"/><line class="cls-7" x1="233.76" y1="203.96" x2="194.82" y2="118.51"/><polygon class="cls-7" points="153.18 203.96 194.82 118.51 233.76 203.96 186 196.18 153.18 203.96"/><polygon class="cls-7" points="461.06 128.33 446.18 113.45 428.22 106.06 443.1 120.94 461.06 128.33"/><polygon class="cls-7" points="736.21 393.98 721.33 379.1 762 266.08 776.88 280.96 736.21 393.98"/></g></g></svg>